<svg width="20" height="20" viewBox="0 0 20 20" fill="none" xmlns="http://www.w3.org/2000/svg">
<path d="M16.6643 8.33254C16.8853 8.33254 17.0972 8.24475 17.2535 8.08849C17.4097 7.93224 17.4975 7.7203 17.4975 7.49932V4.99966C17.4975 4.77868 17.4097 4.56674 17.2535 4.41048C17.0972 4.25423 16.8853 4.16644 16.6643 4.16644H14.5812C14.4519 4.16644 14.3243 4.13632 14.2086 4.07847C14.0929 4.02063 13.9923 3.93663 13.9147 3.83315L13.1648 2.83329C13.0872 2.72981 12.9865 2.64581 12.8708 2.58797C12.7551 2.53012 12.6275 2.5 12.4982 2.5H10.8318C10.6108 2.5 10.3988 2.58779 10.2426 2.74404C10.0863 2.9003 9.99854 3.11224 9.99854 3.33322V7.49932C9.99854 7.7203 10.0863 7.93224 10.2426 8.08849C10.3988 8.24475 10.6108 8.33254 10.8318 8.33254H16.6643Z" stroke="#D1D5DC" stroke-width="1.66644" stroke-linecap="round" stroke-linejoin="round"/>
<path d="M16.6643 17.4976C16.8853 17.4976 17.0972 17.4098 17.2535 17.2535C17.4097 17.0973 17.4975 16.8853 17.4975 16.6644V14.1647C17.4975 13.9437 17.4097 13.7318 17.2535 13.5755C17.0972 13.4193 16.8853 13.3315 16.6643 13.3315H14.248C14.0955 13.3295 13.9465 13.2857 13.8172 13.2049C13.688 13.1241 13.5833 13.0094 13.5147 12.8732L13.1648 12.165C13.0997 12.0159 12.9925 11.8892 12.8563 11.8003C12.7201 11.7115 12.5608 11.6645 12.3982 11.665H10.8318C10.6108 11.665 10.3988 11.7528 10.2426 11.9091C10.0863 12.0653 9.99854 12.2773 9.99854 12.4983V16.6644C9.99854 16.8853 10.0863 17.0973 10.2426 17.2535C10.3988 17.4098 10.6108 17.4976 10.8318 17.4976H16.6643Z" stroke="#D1D5DC" stroke-width="1.66644" stroke-linecap="round" stroke-linejoin="round"/>
<path d="M2.49951 4.16602C2.49951 4.60798 2.67508 5.03185 2.9876 5.34437C3.30012 5.65688 3.72398 5.83246 4.16595 5.83246H6.66561" stroke="#D1D5DC" stroke-width="1.66644" stroke-linecap="round" stroke-linejoin="round"/>
<path d="M2.49951 2.5V13.3319C2.49951 13.7738 2.67508 14.1977 2.9876 14.5102C3.30012 14.8227 3.72398 14.9983 4.16595 14.9983H6.66561" stroke="#D1D5DC" stroke-width="1.66644" stroke-linecap="round" stroke-linejoin="round"/>
</svg>
