<svg width="21" height="21" viewBox="0 0 21 21" fill="none" xmlns="http://www.w3.org/2000/svg">
<path d="M5.09918 18.6979C4.64838 18.6979 4.21603 18.5188 3.89726 18.2C3.5785 17.8813 3.39941 17.4489 3.39941 16.9981V3.39997C3.39941 2.94916 3.5785 2.51682 3.89726 2.19805C4.21603 1.87928 4.64838 1.7002 5.09918 1.7002H11.8983C12.1673 1.69976 12.4338 1.75255 12.6823 1.85553C12.9308 1.95851 13.1566 2.10964 13.3465 2.30022L16.3958 5.3496C16.5869 5.53956 16.7385 5.76549 16.8418 6.01435C16.945 6.26321 16.998 6.53006 16.9976 6.7995V16.9981C16.9976 17.4489 16.8185 17.8813 16.4997 18.2C16.1809 18.5188 15.7486 18.6979 15.2978 18.6979H5.09918Z" stroke="white" stroke-width="1.69977" stroke-linecap="round" stroke-linejoin="round"/>
<path d="M11.8984 1.7002V5.94962C11.8984 6.17502 11.988 6.39119 12.1474 6.55058C12.3067 6.70996 12.5229 6.7995 12.7483 6.7995H16.9977" stroke="white" stroke-width="1.69977" stroke-linecap="round" stroke-linejoin="round"/>
<path d="M8.4986 7.64941H6.79883" stroke="white" stroke-width="1.69977" stroke-linecap="round" stroke-linejoin="round"/>
<path d="M13.5979 11.0488H6.79883" stroke="white" stroke-width="1.69977" stroke-linecap="round" stroke-linejoin="round"/>
<path d="M13.5979 14.4482H6.79883" stroke="white" stroke-width="1.69977" stroke-linecap="round" stroke-linejoin="round"/>
</svg>
