<svg width="16" height="16" viewBox="0 0 16 16" fill="none" xmlns="http://www.w3.org/2000/svg">
<g clip-path="url(#clip0_1096_110)">
<path d="M7.99869 5.33246C11.312 5.33246 13.9979 4.43715 13.9979 3.33274C13.9979 2.22832 11.312 1.33301 7.99869 1.33301C4.68544 1.33301 1.99951 2.22832 1.99951 3.33274C1.99951 4.43715 4.68544 5.33246 7.99869 5.33246Z" stroke="white" stroke-width="1.33315" stroke-linecap="round" stroke-linejoin="round"/>
<path d="M1.99951 3.33301V12.6651C1.99951 13.1954 2.63157 13.7041 3.75663 14.0791C4.8817 14.4541 6.40761 14.6648 7.99869 14.6648C9.58978 14.6648 11.1157 14.4541 12.2408 14.0791C13.3658 13.7041 13.9979 13.1954 13.9979 12.6651V3.33301" stroke="white" stroke-width="1.33315" stroke-linecap="round" stroke-linejoin="round"/>
<path d="M1.99951 7.99902C1.99951 8.52938 2.63157 9.03802 3.75663 9.41304C4.8817 9.78807 6.40761 9.99875 7.99869 9.99875C9.58978 9.99875 11.1157 9.78807 12.2408 9.41304C13.3658 9.03802 13.9979 8.52938 13.9979 7.99902" stroke="white" stroke-width="1.33315" stroke-linecap="round" stroke-linejoin="round"/>
</g>
<defs>
<clipPath id="clip0_1096_110">
<rect width="15.9978" height="15.9978" fill="white"/>
</clipPath>
</defs>
</svg>
