<svg width="20" height="20" viewBox="0 0 20 20" fill="none" xmlns="http://www.w3.org/2000/svg">
<g clip-path="url(#clip0_837_224)">
<path d="M8.32593 1.66504V3.33023" stroke="#E7000B" stroke-width="1.66519" stroke-linecap="round" stroke-linejoin="round"/>
<path d="M11.6563 1.66504V3.33023" stroke="#E7000B" stroke-width="1.66519" stroke-linecap="round" stroke-linejoin="round"/>
<path d="M13.3215 6.66064C13.5423 6.66064 13.7541 6.74836 13.9103 6.90451C14.0664 7.06065 14.1541 7.27242 14.1541 7.49324V14.154C14.1541 15.0373 13.8032 15.8844 13.1787 16.5089C12.5541 17.1335 11.707 17.4844 10.8237 17.4844H5.82818C4.94491 17.4844 4.09781 17.1335 3.47325 16.5089C2.84868 15.8844 2.4978 15.0373 2.4978 14.154V7.49324C2.4978 7.27242 2.58552 7.06065 2.74166 6.90451C2.89781 6.74836 3.10958 6.66064 3.3304 6.66064H14.9867C15.87 6.66064 16.7171 7.01152 17.3416 7.63609C17.9662 8.26066 18.3171 9.10775 18.3171 9.99102C18.3171 10.8743 17.9662 11.7214 17.3416 12.346C16.7171 12.9705 15.87 13.3214 14.9867 13.3214H14.1541" stroke="#E7000B" stroke-width="1.66519" stroke-linecap="round" stroke-linejoin="round"/>
<path d="M4.99554 1.66504V3.33023" stroke="#E7000B" stroke-width="1.66519" stroke-linecap="round" stroke-linejoin="round"/>
</g>
<defs>
<clipPath id="clip0_837_224">
<rect width="19.9823" height="19.9823" fill="white"/>
</clipPath>
</defs>
</svg>
